<?xml version="1.0" encoding="utf-8"?>
<!-- Generator: Adobe Illustrator 25.2.3, SVG Export Plug-In . SVG Version: 6.00 Build 0)  -->
<svg version="1.1" id="Слой_1" xmlns="http://www.w3.org/2000/svg" xmlns:xlink="http://www.w3.org/1999/xlink" x="0px" y="0px"
	 viewBox="0 0 1280 996" style="enable-background:new 0 0 1280 996;" xml:space="preserve">
<style type="text/css">
	.st0{fill:#FF0000;}
</style>
<g transform="translate(0.000000,996.000000) scale(0.100000,-0.100000)">
	<path class="st0" d="M10690,9944c-23-10-1004-984-2901-2881C6212,5487,4918,4199,4912,4201c-8,3-767,720-2375,2244
		c-191,182-366,341-387,353c-49,30-109,31-181,6c-68-24-37,6-1095-1074c-565-577-843-868-855-895c-23-49-24-83-3-134
		c12-31,299-308,1352-1307c1172-1112,1466-1396,2382-2310C4821,15,4836,1,4910,0c14,0,37,8,51,18c79,52,2101,2053,4767,4716
		c2383,2382,3028,3031,3047,3070c27,54,31,99,14,161c-9,35-140,170-967,998c-647,647-970,964-998,977
		C10776,9964,10738,9965,10690,9944z"/>
</g>
</svg>
